{
  "start_time": "2025-09-04T13:01:54.718766583+08:00",
  "end_time": "2025-09-04T13:02:00.985428+08:00",
  "duration": 6266661417,
  "source_directory": "/Users/nameko_1/Downloads/test/TEST_SAMPLES",
  "total_files": 4,
  "processed_files": 3,
  "successful_files": 0,
  "failed_files": 3,
  "skipped_files": 0,
  "total_size_before": 5074741,
  "total_size_after": 0,
  "space_saved": 5074741,
  "compression_ratio": 100,
  "conversion_mode": "quality",
  "file_details": [
    {
      "original_path": "/Users/nameko_1/Downloads/test/TEST_SAMPLES/fake.avif",
      "output_path": "/Users/nameko_1/Downloads/test/TEST_SAMPLES/fake.avif",
      "original_size": 13,
      "output_size": 13,
      "compression_ratio": 0,
      "original_format": ".avif",
      "output_format": ".avif",
      "processing_time": 0,
      "method": "skip",
      "success": true,
      "skipped": true,
      "skip_reason": "already target format"
    },
    {
      "original_path": "/Users/nameko_1/Downloads/test/TEST_SAMPLES/test_avif_1.avif",
      "output_path": "/Users/nameko_1/Downloads/test/TEST_SAMPLES/test_avif_1.avif",
      "original_size": 280655,
      "output_size": 280655,
      "compression_ratio": 0,
      "original_format": ".avif",
      "output_format": ".avif",
      "processing_time": 0,
      "method": "skip",
      "success": true,
      "skipped": true,
      "skip_reason": "already target format"
    },
    {
      "original_path": "/Users/nameko_1/Downloads/test/TEST_SAMPLES/test_avif_2.avif",
      "output_path": "/Users/nameko_1/Downloads/test/TEST_SAMPLES/test_avif_2.avif",
      "original_size": 12859,
      "output_size": 12859,
      "compression_ratio": 0,
      "original_format": ".avif",
      "output_format": ".avif",
      "processing_time": 0,
      "method": "skip",
      "success": true,
      "skipped": true,
      "skip_reason": "already target format"
    },
    {
      "original_path": "/Users/nameko_1/Downloads/test/TEST_SAMPLES/test_jxl_1.jxl",
      "output_path": "/Users/nameko_1/Downloads/test/TEST_SAMPLES/test_jxl_1.jxl",
      "original_size": 108698,
      "output_size": 108698,
      "compression_ratio": 0,
      "original_format": ".jxl",
      "output_format": ".jxl",
      "processing_time": 0,
      "method": "skip",
      "success": true,
      "skipped": true,
      "skip_reason": "already target format"
    },
    {
      "original_path": "/Users/nameko_1/Downloads/test/TEST_SAMPLES/test_jxl_2.jxl",
      "output_path": "/Users/nameko_1/Downloads/test/TEST_SAMPLES/test_jxl_2.jxl",
      "original_size": 76775,
      "output_size": 76775,
      "compression_ratio": 0,
      "original_format": ".jxl",
      "output_format": ".jxl",
      "processing_time": 0,
      "method": "skip",
      "success": true,
      "skipped": true,
      "skip_reason": "already target format"
    },
    {
      "original_path": "/Users/nameko_1/Downloads/test/TEST_SAMPLES/test_video_2.mov",
      "output_path": "/Users/nameko_1/Downloads/test/TEST_SAMPLES/test_video_2.mov",
      "original_size": 3341657,
      "output_size": 3341657,
      "compression_ratio": 0,
      "original_format": ".mov",
      "output_format": ".mov",
      "processing_time": 0,
      "method": "skip",
      "success": true,
      "skipped": true,
      "skip_reason": "already target format"
    },
    {
      "original_path": "/Users/nameko_1/Downloads/test/TEST_SAMPLES/corrupted.jpg",
      "output_path": "",
      "original_size": 17,
      "output_size": 0,
      "compression_ratio": 0,
      "original_format": ".jpg",
      "output_format": "",
      "processing_time": 6136560667,
      "method": "image_conversion",
      "success": false,
      "skipped": false,
      "error": "both cjxl and FFmpeg lossless JXL conversion failed failed: exit status 234, details: [output ffmpeg version 8.0 Copyright (c) 2000-2025 the FFmpeg developers\n  built with Apple clang version 17.0.0 (clang-1700.0.13.3)\n  configuration: --prefix=/opt/homebrew/Cellar/ffmpeg/8.0_1 --enable-shared --enable-pthreads --enable-version3 --cc=clang --host-cflags= --host-ldflags='-Wl,-ld_classic' --enable-ffplay --enable-gnutls --enable-gpl --enable-libaom --enable-libaribb24 --enable-libbluray --enable-libdav1d --enable-libharfbuzz --enable-libjxl --enable-libmp3lame --enable-libopus --enable-librav1e --enable-librist --enable-librubberband --enable-libsnappy --enable-libsrt --enable-libssh --enable-libsvtav1 --enable-libtesseract --enable-libtheora --enable-libvidstab --enable-libvmaf --enable-libvorbis --enable-libvpx --enable-libwebp --enable-libx264 --enable-libx265 --enable-libxml2 --enable-libxvid --enable-lzma --enable-libfontconfig --enable-libfreetype --enable-frei0r --enable-libass --enable-libopencore-amrnb --enable-libopencore-amrwb --enable-libopenjpeg --enable-libspeex --enable-libsoxr --enable-libzmq --enable-libzimg --disable-libjack --disable-indev=jack --enable-videotoolbox --enable-audiotoolbox --enable-neon\n  libavutil      60.  8.100 / 60.  8.100\n  libavcodec     62. 11.100 / 62. 11.100\n  libavformat    62.  3.100 / 62.  3.100\n  libavdevice    62.  1.100 / 62.  1.100\n  libavfilter    11.  4.100 / 11.  4.100\n  libswscale      9.  1.100 /  9.  1.100\n  libswresample   6.  1.100 /  6.  1.100\n[mjpeg @ 0xcb7060380] No JPEG data found in image\n[image2 @ 0xcb6c1c000] Could not find codec parameters for stream 0 (Video: mjpeg, none(bt470bg/unknown/unknown)): unspecified size\nConsider increasing the value for the 'analyzeduration' (0) and 'probesize' (5000000) options\nInput #0, image2, from '/Users/nameko_1/Downloads/test/TEST_SAMPLES/corrupted.jpg':\n  Duration: 00:00:00.04, start: 0.000000, bitrate: 3 kb/s\n  Stream #0:0: Video: mjpeg, none(bt470bg/unknown/unknown), 25 fps, 25 tbr, 25 tbn\n[AVFormatContext @ 0xcb6c1c280] Unable to choose an output format for '/Users/nameko_1/Downloads/test/TEST_SAMPLES/corrupted.jxl.tmp'; use a standard extension for the filename or specify the format manually.\n[out#0 @ 0xcb7064180] Error initializing the muxer for /Users/nameko_1/Downloads/test/TEST_SAMPLES/corrupted.jxl.tmp: Invalid argument\nError opening output file /Users/nameko_1/Downloads/test/TEST_SAMPLES/corrupted.jxl.tmp.\nError opening output files: Invalid argument\n]"
    },
    {
      "original_path": "/Users/nameko_1/Downloads/test/TEST_SAMPLES/test_video_1.webm",
      "output_path": "",
      "original_size": 5074707,
      "output_size": 0,
      "compression_ratio": 0,
      "original_format": "mkv",
      "output_format": "",
      "processing_time": 6136668167,
      "method": "image_conversion",
      "success": false,
      "skipped": false,
      "error": "both cjxl and FFmpeg lossless JXL conversion failed failed: exit status 234, details: [output ffmpeg version 8.0 Copyright (c) 2000-2025 the FFmpeg developers\n  built with Apple clang version 17.0.0 (clang-1700.0.13.3)\n  configuration: --prefix=/opt/homebrew/Cellar/ffmpeg/8.0_1 --enable-shared --enable-pthreads --enable-version3 --cc=clang --host-cflags= --host-ldflags='-Wl,-ld_classic' --enable-ffplay --enable-gnutls --enable-gpl --enable-libaom --enable-libaribb24 --enable-libbluray --enable-libdav1d --enable-libharfbuzz --enable-libjxl --enable-libmp3lame --enable-libopus --enable-librav1e --enable-librist --enable-librubberband --enable-libsnappy --enable-libsrt --enable-libssh --enable-libsvtav1 --enable-libtesseract --enable-libtheora --enable-libvidstab --enable-libvmaf --enable-libvorbis --enable-libvpx --enable-libwebp --enable-libx264 --enable-libx265 --enable-libxml2 --enable-libxvid --enable-lzma --enable-libfontconfig --enable-libfreetype --enable-frei0r --enable-libass --enable-libopencore-amrnb --enable-libopencore-amrwb --enable-libopenjpeg --enable-libspeex --enable-libsoxr --enable-libzmq --enable-libzimg --disable-libjack --disable-indev=jack --enable-videotoolbox --enable-audiotoolbox --enable-neon\n  libavutil      60.  8.100 / 60.  8.100\n  libavcodec     62. 11.100 / 62. 11.100\n  libavformat    62.  3.100 / 62.  3.100\n  libavdevice    62.  1.100 / 62.  1.100\n  libavfilter    11.  4.100 / 11.  4.100\n  libswscale      9.  1.100 /  9.  1.100\n  libswresample   6.  1.100 /  6.  1.100\nInput #0, matroska,webm, from '/Users/nameko_1/Downloads/test/TEST_SAMPLES/test_video_1.webm':\n  Metadata:\n    encoder         : whammy\n  Duration: 00:00:10.16, start: 0.000000, bitrate: 3995 kb/s\n  Stream #0:0: Video: vp8, yuv420p(progressive), 300x411, SAR 1:1 DAR 100:137, 12.50 fps, 12.50 tbr, 1k tbn (default)\n[AVFormatContext @ 0xbe703c280] Unable to choose an output format for '/Users/nameko_1/Downloads/test/TEST_SAMPLES/test_video_1.jxl.tmp'; use a standard extension for the filename or specify the format manually.\n[out#0 @ 0xbe6c08900] Error initializing the muxer for /Users/nameko_1/Downloads/test/TEST_SAMPLES/test_video_1.jxl.tmp: Invalid argument\nError opening output file /Users/nameko_1/Downloads/test/TEST_SAMPLES/test_video_1.jxl.tmp.\nError opening output files: Invalid argument\n]"
    },
    {
      "original_path": "/Users/nameko_1/Downloads/test/TEST_SAMPLES/corrupted.png",
      "output_path": "",
      "original_size": 17,
      "output_size": 0,
      "compression_ratio": 0,
      "original_format": ".png",
      "output_format": "",
      "processing_time": 6163909959,
      "method": "image_conversion",
      "success": false,
      "skipped": false,
      "error": "both cjxl and FFmpeg lossless JXL conversion failed failed: exit status 234, details: [output ffmpeg version 8.0 Copyright (c) 2000-2025 the FFmpeg developers\n  built with Apple clang version 17.0.0 (clang-1700.0.13.3)\n  configuration: --prefix=/opt/homebrew/Cellar/ffmpeg/8.0_1 --enable-shared --enable-pthreads --enable-version3 --cc=clang --host-cflags= --host-ldflags='-Wl,-ld_classic' --enable-ffplay --enable-gnutls --enable-gpl --enable-libaom --enable-libaribb24 --enable-libbluray --enable-libdav1d --enable-libharfbuzz --enable-libjxl --enable-libmp3lame --enable-libopus --enable-librav1e --enable-librist --enable-librubberband --enable-libsnappy --enable-libsrt --enable-libssh --enable-libsvtav1 --enable-libtesseract --enable-libtheora --enable-libvidstab --enable-libvmaf --enable-libvorbis --enable-libvpx --enable-libwebp --enable-libx264 --enable-libx265 --enable-libxml2 --enable-libxvid --enable-lzma --enable-libfontconfig --enable-libfreetype --enable-frei0r --enable-libass --enable-libopencore-amrnb --enable-libopencore-amrwb --enable-libopenjpeg --enable-libspeex --enable-libsoxr --enable-libzmq --enable-libzimg --disable-libjack --disable-indev=jack --enable-videotoolbox --enable-audiotoolbox --enable-neon\n  libavutil      60.  8.100 / 60.  8.100\n  libavcodec     62. 11.100 / 62. 11.100\n  libavformat    62.  3.100 / 62.  3.100\n  libavdevice    62.  1.100 / 62.  1.100\n  libavfilter    11.  4.100 / 11.  4.100\n  libswscale      9.  1.100 /  9.  1.100\n  libswresample   6.  1.100 /  6.  1.100\n[png @ 0x7e9048380] Invalid PNG signature 0x696E76616C696420.\n[image2 @ 0x7e9040000] Could not find codec parameters for stream 0 (Video: png, none): unspecified size\nConsider increasing the value for the 'analyzeduration' (0) and 'probesize' (5000000) options\nInput #0, image2, from '/Users/nameko_1/Downloads/test/TEST_SAMPLES/corrupted.png':\n  Duration: 00:00:00.04, start: 0.000000, bitrate: 3 kb/s\n  Stream #0:0: Video: png, none, 25 fps, 25 tbr, 25 tbn\n[AVFormatContext @ 0x7e9040280] Unable to choose an output format for '/Users/nameko_1/Downloads/test/TEST_SAMPLES/corrupted.jxl.tmp'; use a standard extension for the filename or specify the format manually.\n[out#0 @ 0x7e8c08900] Error initializing the muxer for /Users/nameko_1/Downloads/test/TEST_SAMPLES/corrupted.jxl.tmp: Invalid argument\nError opening output file /Users/nameko_1/Downloads/test/TEST_SAMPLES/corrupted.jxl.tmp.\nError opening output files: Invalid argument\n]"
    }
  ],
  "format_summary": {},
  "system_info": {
    "os": "darwin",
    "arch": "arm64",
    "cpu_cores": 8,
    "concurrency": 4,
    "memory_used_mb": 0
  },
  "errors": [
    {
      "file": "/Users/nameko_1/Downloads/test/TEST_SAMPLES/corrupted.jpg",
      "error": "both cjxl and FFmpeg lossless JXL conversion failed failed: exit status 234, details: [output ffmpeg version 8.0 Copyright (c) 2000-2025 the FFmpeg developers\n  built with Apple clang version 17.0.0 (clang-1700.0.13.3)\n  configuration: --prefix=/opt/homebrew/Cellar/ffmpeg/8.0_1 --enable-shared --enable-pthreads --enable-version3 --cc=clang --host-cflags= --host-ldflags='-Wl,-ld_classic' --enable-ffplay --enable-gnutls --enable-gpl --enable-libaom --enable-libaribb24 --enable-libbluray --enable-libdav1d --enable-libharfbuzz --enable-libjxl --enable-libmp3lame --enable-libopus --enable-librav1e --enable-librist --enable-librubberband --enable-libsnappy --enable-libsrt --enable-libssh --enable-libsvtav1 --enable-libtesseract --enable-libtheora --enable-libvidstab --enable-libvmaf --enable-libvorbis --enable-libvpx --enable-libwebp --enable-libx264 --enable-libx265 --enable-libxml2 --enable-libxvid --enable-lzma --enable-libfontconfig --enable-libfreetype --enable-frei0r --enable-libass --enable-libopencore-amrnb --enable-libopencore-amrwb --enable-libopenjpeg --enable-libspeex --enable-libsoxr --enable-libzmq --enable-libzimg --disable-libjack --disable-indev=jack --enable-videotoolbox --enable-audiotoolbox --enable-neon\n  libavutil      60.  8.100 / 60.  8.100\n  libavcodec     62. 11.100 / 62. 11.100\n  libavformat    62.  3.100 / 62.  3.100\n  libavdevice    62.  1.100 / 62.  1.100\n  libavfilter    11.  4.100 / 11.  4.100\n  libswscale      9.  1.100 /  9.  1.100\n  libswresample   6.  1.100 /  6.  1.100\n[mjpeg @ 0xcb7060380] No JPEG data found in image\n[image2 @ 0xcb6c1c000] Could not find codec parameters for stream 0 (Video: mjpeg, none(bt470bg/unknown/unknown)): unspecified size\nConsider increasing the value for the 'analyzeduration' (0) and 'probesize' (5000000) options\nInput #0, image2, from '/Users/nameko_1/Downloads/test/TEST_SAMPLES/corrupted.jpg':\n  Duration: 00:00:00.04, start: 0.000000, bitrate: 3 kb/s\n  Stream #0:0: Video: mjpeg, none(bt470bg/unknown/unknown), 25 fps, 25 tbr, 25 tbn\n[AVFormatContext @ 0xcb6c1c280] Unable to choose an output format for '/Users/nameko_1/Downloads/test/TEST_SAMPLES/corrupted.jxl.tmp'; use a standard extension for the filename or specify the format manually.\n[out#0 @ 0xcb7064180] Error initializing the muxer for /Users/nameko_1/Downloads/test/TEST_SAMPLES/corrupted.jxl.tmp: Invalid argument\nError opening output file /Users/nameko_1/Downloads/test/TEST_SAMPLES/corrupted.jxl.tmp.\nError opening output files: Invalid argument\n]",
      "time": "2025-09-04T13:02:00.985439+08:00"
    },
    {
      "file": "/Users/nameko_1/Downloads/test/TEST_SAMPLES/test_video_1.webm",
      "error": "both cjxl and FFmpeg lossless JXL conversion failed failed: exit status 234, details: [output ffmpeg version 8.0 Copyright (c) 2000-2025 the FFmpeg developers\n  built with Apple clang version 17.0.0 (clang-1700.0.13.3)\n  configuration: --prefix=/opt/homebrew/Cellar/ffmpeg/8.0_1 --enable-shared --enable-pthreads --enable-version3 --cc=clang --host-cflags= --host-ldflags='-Wl,-ld_classic' --enable-ffplay --enable-gnutls --enable-gpl --enable-libaom --enable-libaribb24 --enable-libbluray --enable-libdav1d --enable-libharfbuzz --enable-libjxl --enable-libmp3lame --enable-libopus --enable-librav1e --enable-librist --enable-librubberband --enable-libsnappy --enable-libsrt --enable-libssh --enable-libsvtav1 --enable-libtesseract --enable-libtheora --enable-libvidstab --enable-libvmaf --enable-libvorbis --enable-libvpx --enable-libwebp --enable-libx264 --enable-libx265 --enable-libxml2 --enable-libxvid --enable-lzma --enable-libfontconfig --enable-libfreetype --enable-frei0r --enable-libass --enable-libopencore-amrnb --enable-libopencore-amrwb --enable-libopenjpeg --enable-libspeex --enable-libsoxr --enable-libzmq --enable-libzimg --disable-libjack --disable-indev=jack --enable-videotoolbox --enable-audiotoolbox --enable-neon\n  libavutil      60.  8.100 / 60.  8.100\n  libavcodec     62. 11.100 / 62. 11.100\n  libavformat    62.  3.100 / 62.  3.100\n  libavdevice    62.  1.100 / 62.  1.100\n  libavfilter    11.  4.100 / 11.  4.100\n  libswscale      9.  1.100 /  9.  1.100\n  libswresample   6.  1.100 /  6.  1.100\nInput #0, matroska,webm, from '/Users/nameko_1/Downloads/test/TEST_SAMPLES/test_video_1.webm':\n  Metadata:\n    encoder         : whammy\n  Duration: 00:00:10.16, start: 0.000000, bitrate: 3995 kb/s\n  Stream #0:0: Video: vp8, yuv420p(progressive), 300x411, SAR 1:1 DAR 100:137, 12.50 fps, 12.50 tbr, 1k tbn (default)\n[AVFormatContext @ 0xbe703c280] Unable to choose an output format for '/Users/nameko_1/Downloads/test/TEST_SAMPLES/test_video_1.jxl.tmp'; use a standard extension for the filename or specify the format manually.\n[out#0 @ 0xbe6c08900] Error initializing the muxer for /Users/nameko_1/Downloads/test/TEST_SAMPLES/test_video_1.jxl.tmp: Invalid argument\nError opening output file /Users/nameko_1/Downloads/test/TEST_SAMPLES/test_video_1.jxl.tmp.\nError opening output files: Invalid argument\n]",
      "time": "2025-09-04T13:02:00.985439+08:00"
    },
    {
      "file": "/Users/nameko_1/Downloads/test/TEST_SAMPLES/corrupted.png",
      "error": "both cjxl and FFmpeg lossless JXL conversion failed failed: exit status 234, details: [output ffmpeg version 8.0 Copyright (c) 2000-2025 the FFmpeg developers\n  built with Apple clang version 17.0.0 (clang-1700.0.13.3)\n  configuration: --prefix=/opt/homebrew/Cellar/ffmpeg/8.0_1 --enable-shared --enable-pthreads --enable-version3 --cc=clang --host-cflags= --host-ldflags='-Wl,-ld_classic' --enable-ffplay --enable-gnutls --enable-gpl --enable-libaom --enable-libaribb24 --enable-libbluray --enable-libdav1d --enable-libharfbuzz --enable-libjxl --enable-libmp3lame --enable-libopus --enable-librav1e --enable-librist --enable-librubberband --enable-libsnappy --enable-libsrt --enable-libssh --enable-libsvtav1 --enable-libtesseract --enable-libtheora --enable-libvidstab --enable-libvmaf --enable-libvorbis --enable-libvpx --enable-libwebp --enable-libx264 --enable-libx265 --enable-libxml2 --enable-libxvid --enable-lzma --enable-libfontconfig --enable-libfreetype --enable-frei0r --enable-libass --enable-libopencore-amrnb --enable-libopencore-amrwb --enable-libopenjpeg --enable-libspeex --enable-libsoxr --enable-libzmq --enable-libzimg --disable-libjack --disable-indev=jack --enable-videotoolbox --enable-audiotoolbox --enable-neon\n  libavutil      60.  8.100 / 60.  8.100\n  libavcodec     62. 11.100 / 62. 11.100\n  libavformat    62.  3.100 / 62.  3.100\n  libavdevice    62.  1.100 / 62.  1.100\n  libavfilter    11.  4.100 / 11.  4.100\n  libswscale      9.  1.100 /  9.  1.100\n  libswresample   6.  1.100 /  6.  1.100\n[png @ 0x7e9048380] Invalid PNG signature 0x696E76616C696420.\n[image2 @ 0x7e9040000] Could not find codec parameters for stream 0 (Video: png, none): unspecified size\nConsider increasing the value for the 'analyzeduration' (0) and 'probesize' (5000000) options\nInput #0, image2, from '/Users/nameko_1/Downloads/test/TEST_SAMPLES/corrupted.png':\n  Duration: 00:00:00.04, start: 0.000000, bitrate: 3 kb/s\n  Stream #0:0: Video: png, none, 25 fps, 25 tbr, 25 tbn\n[AVFormatContext @ 0x7e9040280] Unable to choose an output format for '/Users/nameko_1/Downloads/test/TEST_SAMPLES/corrupted.jxl.tmp'; use a standard extension for the filename or specify the format manually.\n[out#0 @ 0x7e8c08900] Error initializing the muxer for /Users/nameko_1/Downloads/test/TEST_SAMPLES/corrupted.jxl.tmp: Invalid argument\nError opening output file /Users/nameko_1/Downloads/test/TEST_SAMPLES/corrupted.jxl.tmp.\nError opening output files: Invalid argument\n]",
      "time": "2025-09-04T13:02:00.98544+08:00"
    }
  ]
}